{"title":"The.Dark.Night.[2011].DvdRip.XviD-Kna","uid":6682571,"size":1326960640,"categoryP":"video","categoryS":"movies","magnet":"?xt=urn:btih:e902f6b2622c51c77ce3ad7f4fb52b3e55358034&amp;dn=The.Dark.Night.%5B2011%5D.DvdRip.XviD-Kna&amp;tr=udp%3A%2F%2Ftracker.openbittorrent.com%3A80&amp;tr=udp%3A%2F%2Fopen.demonii.com%3A1337&amp;tr=udp%3A%2F%2Ftracker.coppersurfer.tk%3A6969&amp;tr=udp%3A%2F%2Fexodus.desync.com%3A6969","seeders":0,"leechers":0,"uploader":"Jon.Pson","files":-1,"time":1316259213,"description":" &lt;a href=&quot;http://www.play.com/DVD/DVD/4-/20236113/The-Dark-Knight/Product.html&quot; rel=&quot;nofollow&quot; target=&quot;_NEW&quot;&gt;http://www.play.com/DVD/DVD/4-/20236113/The-Dark-Knight/Product.html&lt;/a&gt;\n\n\n\nGeneral\nComplete name                    : The.Dark.Night.[2011].DvdRip.XviD-KnÃƒÂ£\\The.Dark.Night.[2011].DvdRip.XviD-KnÃƒÂ£.avi\nFormat                           : AVI\nFormat/Info                      : Audio Video Interleave\nFile size                        : 1.24 GiB\nDuration                         : 1h 21mn\nOverall bit rate                 : 2 175 Kbps\nWriting application              : VirtualDubMod 1.5.4.1 (build 2178/release)\nWriting library                  : VirtualDubMod build 2178/release\n\nVideo\nID                               : 0\nFormat                           : MPEG-4 Visual\nFormat profile                   : Advanced Simple@L5\nFormat settings, BVOP            : No\nFormat settings, QPel            : No\nFormat settings, GMC             : No warppoints\nFormat settings, Matrix          : Custom\nCodec ID                         : XVID\nCodec ID/Hint                    : XviD\nDuration                         : 1h 21mn\nBit rate                         : 1 944 Kbps\nWidth                            : 720 pixels\nHeight                           : 304 pixels\nDisplay aspect ratio             : 2.35:1\nFrame rate                       : 25.000 fps\nColor space                      : YUV\nChroma subsampling               : 4:2:0\nBit depth                        : 8 bits\nScan type                        : Progressive\nCompression mode                 : Lossy\nBits/(Pixel*Frame)               : 0.355\nStream size                      : 1.10 GiB (89%)\nWriting library                  : XviD 1.2.1 (UTC 2008-12-04)\n\nAudio\nID                               : 1\nFormat                           : AC-3\nFormat/Info                      : Audio Coding 3\nMode extension                   : CM (complete main)\nCodec ID                         : 2000\nDuration                         : 1h 21mn\nBit rate mode                    : Constant\nBit rate                         : 224 Kbps\nChannel(s)                       : 2 channels\nChannel positions                : Front: L R\nSampling rate                    : 48.0 KHz\nBit depth                        : 16 bits\nCompression mode                 : Lossy\nStream size                      : 130 MiB (10%)\nAlignment                        : Split accross interleaves\nInterleave, duration             : 96 ms (2.40 video frames)\nInterleave, preload duration     : 96 ms\n\n","torrent":{"xt":"urn:btih:e902f6b2622c51c77ce3ad7f4fb52b3e55358034","amp;dn":"The.Dark.Night.%5B2011%5D.DvdRip.XviD-Kna","amp;tr":["udp%3A%2F%2Ftracker.openbittorrent.com%3A80","udp%3A%2F%2Fopen.demonii.com%3A1337","udp%3A%2F%2Ftracker.coppersurfer.tk%3A6969","udp%3A%2F%2Fexodus.desync.com%3A6969"],"infoHash":"e902f6b2622c51c77ce3ad7f4fb52b3e55358034","infoHashBuffer":{"type":"Buffer","data":[233,2,246,178,98,44,81,199,124,227,173,127,79,181,43,62,85,53,128,52]},"announce":[],"urlList":[]}}